<svg xmlns="http://www.w3.org/2000/svg" xmlns:xlink="http://www.w3.org/1999/xlink" width="429" zoomAndPan="magnify" viewBox="0 0 321.75 219.75" height="293" preserveAspectRatio="xMidYMid meet" version="1.0"><defs><clipPath id="f7b2cfe93e"><path d="M 0.703125 0 L 264.882812 0 L 264.882812 207.84375 L 0.703125 207.84375 Z M 0.703125 0 " clip-rule="nonzero"/></clipPath><clipPath id="656b82cbbe"><path d="M 0.835938 60.980469 L 4.53125 60.980469 L 4.53125 196.957031 L 0.835938 196.957031 Z M 0.835938 60.980469 " clip-rule="nonzero"/></clipPath><clipPath id="f920b3880f"><path d="M 0.835938 0.980469 L 4.53125 0.980469 L 4.53125 136.957031 L 0.835938 136.957031 Z M 0.835938 0.980469 " clip-rule="nonzero"/></clipPath><clipPath id="b2444c1e2f"><rect x="0" width="5" y="0" height="137"/></clipPath><clipPath id="539d387415"><path d="M 46.152344 38.277344 L 225.8125 38.277344 L 225.8125 196.847656 L 46.152344 196.847656 Z M 46.152344 38.277344 " clip-rule="nonzero"/></clipPath><clipPath id="414c7e8a24"><path d="M 46.402344 164.328125 L 74.710938 195.816406 C 74.710938 195.816406 77.976562 198.117188 80.789062 195.117188 C 83.601562 192.121094 99.40625 183.046875 105.667969 184.710938 C 111.929688 186.375 147.8125 195.304688 149.414062 196 C 151.015625 196.699219 162.46875 197.765625 169.695312 194.851562 C 176.921875 191.9375 218.902344 172.269531 218.902344 172.269531 C 218.902344 172.269531 228.160156 168.390625 225.078125 161.0625 C 222 153.734375 213.359375 155.417969 208.863281 156.566406 C 204.367188 157.714844 149.949219 166.09375 149.332031 166.175781 C 148.714844 166.257812 143.605469 166.175781 143.605469 161.84375 C 143.605469 157.511719 145.371094 156.628906 149.679688 155.539062 C 153.992188 154.453125 165.117188 151.066406 164.933594 144.558594 C 164.75 138.378906 159.636719 132.46875 148.613281 134.683594 C 148.613281 134.683594 131.0625 138.5625 126.03125 138.5625 L 132.210938 128.691406 C 132.210938 128.691406 133.074219 127.5625 134.902344 130.023438 C 136.726562 132.488281 142.535156 135.894531 147.8125 133.308594 C 153.089844 130.722656 162.902344 123.394531 162.902344 123.394531 C 162.902344 123.394531 165.078125 121.730469 162.101562 119.617188 C 159.125 117.503906 146.027344 114.914062 142.453125 115.058594 C 138.882812 115.203125 148.140625 106.664062 148.140625 106.664062 C 148.140625 106.664062 148.511719 106.644531 150.050781 107.914062 C 154.605469 111.691406 158.710938 114.136719 165.136719 110.421875 C 171.5625 106.703125 179.28125 100.136719 179.546875 99.582031 C 180.535156 97.589844 177.761719 94.285156 157.664062 92.3125 L 163.742188 84.515625 C 163.742188 84.515625 164.871094 83.117188 167.253906 85.847656 C 169.632812 88.578125 172.816406 91.65625 181.476562 87.101562 C 190.140625 82.542969 196.300781 76.714844 196.21875 76.445312 C 196.136719 76.179688 189.011719 70.699219 172.734375 69.835938 L 176.570312 66.265625 C 176.570312 66.265625 189.402344 67.332031 190.984375 59.386719 C 192.5625 51.441406 193.242188 39.269531 193.242188 39.269531 C 193.242188 39.269531 193.117188 37.832031 188.539062 40.195312 C 183.960938 42.554688 171.277344 45.941406 170.289062 54.007812 C 169.40625 61.195312 172.015625 59.757812 173 61.214844 C 173.984375 62.671875 173.472656 64.992188 171.277344 67.167969 C 171.277344 67.167969 169.839844 66.941406 168.832031 64.457031 C 166.800781 59.488281 160.375 51.875 159.453125 51.15625 C 159.183594 50.949219 157.6875 49 155.941406 51.421875 C 153.867188 54.296875 150.441406 69.28125 151.652344 73.242188 C 152.964844 77.617188 153.972656 78.808594 160.847656 80.449219 C 160.847656 80.449219 162.511719 80.324219 162.242188 81.433594 C 161.976562 82.542969 154.894531 90.753906 154.894531 90.753906 C 154.894531 90.753906 146.230469 76.199219 143.523438 74.085938 C 143.523438 74.085938 142.066406 72.09375 140.421875 74.804688 C 138.78125 77.515625 135.699219 90.199219 136.070312 94.65625 C 136.460938 99.355469 139.109375 102.457031 145.65625 102.660156 C 145.65625 102.660156 146.582031 103.523438 146.128906 104.242188 C 145.675781 104.960938 140.832031 111.242188 140.441406 112.78125 C 140.441406 112.78125 140.175781 113.847656 138.390625 110.726562 C 136.605469 107.609375 128.476562 95.457031 127.140625 95.515625 C 125.804688 95.578125 119.667969 105.371094 120.058594 115.757812 C 120.058594 115.757812 120.121094 123.375 128.84375 125.28125 C 128.84375 125.28125 131.101562 125.40625 129.378906 128.136719 C 127.652344 130.867188 122.5 137.867188 122.5 137.867188 C 122.5 137.867188 122.5625 139.589844 114.496094 140.515625 C 106.429688 141.4375 84.132812 143.429688 81.816406 143.613281 C 80.644531 143.714844 56.8125 150.695312 46.835938 161.738281 C 46.835938 161.738281 45.933594 163.011719 46.425781 164.304688 " clip-rule="nonzero"/></clipPath><clipPath id="489aad2332"><path d="M 0.152344 0.277344 L 179.8125 0.277344 L 179.8125 158.847656 L 0.152344 158.847656 Z M 0.152344 0.277344 " clip-rule="nonzero"/></clipPath><clipPath id="5667cce2ba"><path d="M 0.402344 126.328125 L 28.710938 157.816406 C 28.710938 157.816406 31.976562 160.117188 34.789062 157.117188 C 37.601562 154.121094 53.40625 145.046875 59.667969 146.710938 C 65.929688 148.375 101.8125 157.304688 103.414062 158 C 105.015625 158.699219 116.46875 159.765625 123.695312 156.851562 C 130.921875 153.9375 172.902344 134.269531 172.902344 134.269531 C 172.902344 134.269531 182.160156 130.390625 179.078125 123.0625 C 176 115.734375 167.359375 117.417969 162.863281 118.566406 C 158.367188 119.714844 103.949219 128.09375 103.332031 128.175781 C 102.714844 128.257812 97.605469 128.175781 97.605469 123.84375 C 97.605469 119.511719 99.371094 118.628906 103.679688 117.539062 C 107.992188 116.453125 119.117188 113.066406 118.933594 106.558594 C 118.75 100.378906 113.636719 94.46875 102.613281 96.683594 C 102.613281 96.683594 85.0625 100.5625 80.03125 100.5625 L 86.210938 90.691406 C 86.210938 90.691406 87.074219 89.5625 88.902344 92.023438 C 90.726562 94.488281 96.535156 97.894531 101.8125 95.308594 C 107.089844 92.722656 116.902344 85.394531 116.902344 85.394531 C 116.902344 85.394531 119.078125 83.730469 116.101562 81.617188 C 113.125 79.503906 100.027344 76.914062 96.453125 77.058594 C 92.882812 77.203125 102.140625 68.664062 102.140625 68.664062 C 102.140625 68.664062 102.511719 68.644531 104.050781 69.914062 C 108.605469 73.691406 112.710938 76.136719 119.136719 72.421875 C 125.5625 68.703125 133.28125 62.136719 133.546875 61.582031 C 134.535156 59.589844 131.761719 56.285156 111.664062 54.3125 L 117.742188 46.515625 C 117.742188 46.515625 118.871094 45.117188 121.253906 47.847656 C 123.632812 50.578125 126.816406 53.65625 135.476562 49.101562 C 144.140625 44.542969 150.300781 38.714844 150.21875 38.445312 C 150.136719 38.179688 143.011719 32.699219 126.734375 31.835938 L 130.570312 28.265625 C 130.570312 28.265625 143.402344 29.332031 144.984375 21.386719 C 146.5625 13.441406 147.242188 1.269531 147.242188 1.269531 C 147.242188 1.269531 147.117188 -0.167969 142.539062 2.195312 C 137.960938 4.554688 125.277344 7.941406 124.289062 16.007812 C 123.40625 23.195312 126.015625 21.757812 127 23.214844 C 127.984375 24.671875 127.472656 26.992188 125.277344 29.167969 C 125.277344 29.167969 123.839844 28.941406 122.832031 26.457031 C 120.800781 21.488281 114.375 13.875 113.453125 13.15625 C 113.183594 12.949219 111.6875 11 109.941406 13.421875 C 107.867188 16.296875 104.441406 31.28125 105.652344 35.242188 C 106.964844 39.617188 107.972656 40.808594 114.847656 42.449219 C 114.847656 42.449219 116.511719 42.324219 116.242188 43.433594 C 115.976562 44.542969 108.894531 52.753906 108.894531 52.753906 C 108.894531 52.753906 100.230469 38.199219 97.523438 36.085938 C 97.523438 36.085938 96.066406 34.09375 94.421875 36.804688 C 92.78125 39.515625 89.699219 52.199219 90.070312 56.65625 C 90.460938 61.355469 93.109375 64.457031 99.65625 64.660156 C 99.65625 64.660156 100.582031 65.523438 100.128906 66.242188 C 99.675781 66.960938 94.832031 73.242188 94.441406 74.78125 C 94.441406 74.78125 94.175781 75.847656 92.390625 72.726562 C 90.605469 69.609375 82.476562 57.457031 81.140625 57.515625 C 79.804688 57.578125 73.667969 67.371094 74.058594 77.757812 C 74.058594 77.757812 74.121094 85.375 82.84375 87.28125 C 82.84375 87.28125 85.101562 87.40625 83.378906 90.136719 C 81.652344 92.867188 76.5 99.867188 76.5 99.867188 C 76.5 99.867188 76.5625 101.589844 68.496094 102.515625 C 60.429688 103.4375 38.132812 105.429688 35.816406 105.613281 C 34.644531 105.714844 10.8125 112.695312 0.835938 123.738281 C 0.835938 123.738281 -0.0664062 125.011719 0.425781 126.304688 " clip-rule="nonzero"/></clipPath><clipPath id="24914f5f8d"><rect x="0" width="180" y="0" height="159"/></clipPath><clipPath id="8793028dff"><path d="M 171.132812 18.746094 L 188 18.746094 L 188 40 L 171.132812 40 Z M 171.132812 18.746094 " clip-rule="nonzero"/></clipPath><clipPath id="2196b9e361"><path d="M 171.460938 38.140625 L 174.644531 39.90625 L 187.964844 21.042969 C 187.964844 21.042969 185.132812 19.195312 184.785156 18.925781 C 184.433594 18.660156 171.460938 38.160156 171.460938 38.160156 " clip-rule="nonzero"/></clipPath><clipPath id="b907c1d2c7"><path d="M 0.386719 0.746094 L 17 0.746094 L 17 22 L 0.386719 22 Z M 0.386719 0.746094 " clip-rule="nonzero"/></clipPath><clipPath id="6e5a55701a"><path d="M 0.460938 20.140625 L 3.644531 21.90625 L 16.964844 3.042969 C 16.964844 3.042969 14.132812 1.195312 13.785156 0.925781 C 13.433594 0.660156 0.460938 20.160156 0.460938 20.160156 " clip-rule="nonzero"/></clipPath><clipPath id="39f3069a0e"><rect x="0" width="17" y="0" height="22"/></clipPath><clipPath id="f53fd2c70c"><path d="M 194 10.15625 L 214.878906 10.15625 L 214.878906 35 L 194 35 Z M 194 10.15625 " clip-rule="nonzero"/></clipPath><clipPath id="cab9882361"><path d="M 194.289062 32.761719 L 197.121094 34.445312 L 214.324219 12.828125 L 210.527344 10.265625 L 194.308594 33.195312 " clip-rule="nonzero"/></clipPath><clipPath id="93d1e2ea54"><path d="M 0.160156 0.15625 L 20.539062 0.15625 L 20.539062 24.519531 L 0.160156 24.519531 Z M 0.160156 0.15625 " clip-rule="nonzero"/></clipPath><clipPath id="d259e51092"><path d="M 0.289062 22.761719 L 3.121094 24.445312 L 20.324219 2.828125 L 16.527344 0.265625 L 0.308594 23.195312 " clip-rule="nonzero"/></clipPath><clipPath id="88a3ac0846"><rect x="0" width="21" y="0" height="25"/></clipPath><clipPath id="32e0c5dcd9"><path d="M 197 38 L 214.878906 38 L 214.878906 57.023438 L 197 57.023438 Z M 197 38 " clip-rule="nonzero"/></clipPath><clipPath id="80d5c0bc49"><path d="M 197.46875 57.007812 L 201.964844 57.007812 L 214.753906 39.90625 L 210.957031 38.222656 Z M 197.46875 57.007812 " clip-rule="nonzero"/></clipPath><clipPath id="a40b02366c"><path d="M 0.277344 0.117188 L 17.777344 0.117188 L 17.777344 19.023438 L 0.277344 19.023438 Z M 0.277344 0.117188 " clip-rule="nonzero"/></clipPath><clipPath id="3b3591152b"><path d="M 0.46875 19.007812 L 4.964844 19.007812 L 17.753906 1.90625 L 13.957031 0.222656 Z M 0.46875 19.007812 " clip-rule="nonzero"/></clipPath><clipPath id="8afb80120a"><rect x="0" width="18" y="0" height="20"/></clipPath><clipPath id="b0197b7aa1"><path d="M 261.066406 55.527344 L 264.761719 55.527344 L 264.761719 191.503906 L 261.066406 191.503906 Z M 261.066406 55.527344 " clip-rule="nonzero"/></clipPath><clipPath id="87d5e8dc5a"><path d="M 0.0664062 0.527344 L 3.761719 0.527344 L 3.761719 136.503906 L 0.0664062 136.503906 Z M 0.0664062 0.527344 " clip-rule="nonzero"/></clipPath><clipPath id="2e9e3e5d60"><rect x="0" width="4" y="0" height="137"/></clipPath><clipPath id="a6bbfce994"><rect x="0" width="265" y="0" height="208"/></clipPath><clipPath id="f86dcc4587"><rect x="0" width="265" y="0" height="208"/></clipPath></defs><g transform="matrix(1, 0, 0, 1, 31, 0.000000000000007073)"><g clip-path="url(#f86dcc4587)"><g clip-path="url(#f7b2cfe93e)"><g transform="matrix(1, 0, 0, 1, -0.000000000000010658, 0.000000000000007073)"><g clip-path="url(#a6bbfce994)"><g clip-path="url(#656b82cbbe)"><g transform="matrix(1, 0, 0, 1, -0.000000000000010658, 60)"><g clip-path="url(#b2444c1e2f)"><g clip-path="url(#f920b3880f)"><path fill="#239977" d="M 0.835938 0.980469 L 4.53125 0.980469 L 4.53125 136.960938 L 0.835938 136.960938 Z M 0.835938 0.980469 " fill-opacity="1" fill-rule="nonzero"/></g></g></g></g><g clip-path="url(#539d387415)"><g clip-path="url(#414c7e8a24)"><g transform="matrix(1, 0, 0, 1, 46, 38)"><g clip-path="url(#24914f5f8d)"><g clip-path="url(#489aad2332)"><g clip-path="url(#5667cce2ba)"><rect x="-249.7154" width="667.1808" fill="#239977" height="455.6736" y="-155.9618" fill-opacity="1"/></g></g></g></g></g></g><g clip-path="url(#8793028dff)"><g clip-path="url(#2196b9e361)"><g transform="matrix(1, 0, 0, 1, 171, 18)"><g clip-path="url(#39f3069a0e)"><g clip-path="url(#b907c1d2c7)"><g clip-path="url(#6e5a55701a)"><rect x="-374.7154" width="667.1808" fill="#239977" height="455.6736" y="-135.9618" fill-opacity="1"/></g></g></g></g></g></g><g clip-path="url(#f53fd2c70c)"><g clip-path="url(#cab9882361)"><g transform="matrix(1, 0, 0, 1, 194, 10)"><g clip-path="url(#88a3ac0846)"><g clip-path="url(#93d1e2ea54)"><g clip-path="url(#d259e51092)"><rect x="-397.7154" width="667.1808" fill="#239977" height="455.6736" y="-127.9618" fill-opacity="1"/></g></g></g></g></g></g><g clip-path="url(#32e0c5dcd9)"><g clip-path="url(#80d5c0bc49)"><g transform="matrix(1, 0, 0, 1, 197, 38)"><g clip-path="url(#8afb80120a)"><g clip-path="url(#a40b02366c)"><g clip-path="url(#3b3591152b)"><rect x="-400.7154" width="667.1808" fill="#239977" height="455.6736" y="-155.9618" fill-opacity="1"/></g></g></g></g></g></g><g clip-path="url(#b0197b7aa1)"><g transform="matrix(1, 0, 0, 1, 261, 55)"><g clip-path="url(#2e9e3e5d60)"><g clip-path="url(#87d5e8dc5a)"><path fill="#239977" d="M 0.0664062 0.527344 L 3.761719 0.527344 L 3.761719 136.507812 L 0.0664062 136.507812 Z M 0.0664062 0.527344 " fill-opacity="1" fill-rule="nonzero"/></g></g></g></g></g></g></g></g></g></svg>